<mxfile host="Electron" agent="Mozilla/5.0 (X11; Linux x86_64) AppleWebKit/537.36 (KHTML, like Gecko) draw.io/26.1.1 Chrome/132.0.6834.210 Electron/34.3.3 Safari/537.36" version="26.1.1">
  <diagram name="Page-1" id="fePkgZaWmkV2_UUNthlM">
    <mxGraphModel dx="1648" dy="838" grid="1" gridSize="10" guides="1" tooltips="1" connect="1" arrows="1" fold="1" page="1" pageScale="1" pageWidth="827" pageHeight="1169" math="0" shadow="0">
      <root>
        <mxCell id="0" />
        <mxCell id="1" parent="0" />
        <mxCell id="1GwevCP6RhUtGkenDWu2-2" value="Cluster" style="rounded=1;whiteSpace=wrap;html=1;align=center;labelPosition=center;verticalLabelPosition=bottom;verticalAlign=top;" parent="1" vertex="1">
          <mxGeometry x="80" y="310" width="290" height="250" as="geometry" />
        </mxCell>
        <mxCell id="1GwevCP6RhUtGkenDWu2-3" value="" style="image;aspect=fixed;perimeter=ellipsePerimeter;html=1;align=center;shadow=0;dashed=0;spacingTop=3;image=img/lib/active_directory/database_server.svg;" parent="1" vertex="1">
          <mxGeometry x="220" y="1189" width="41" height="50" as="geometry" />
        </mxCell>
        <mxCell id="1GwevCP6RhUtGkenDWu2-5" value="" style="image;aspect=fixed;perimeter=ellipsePerimeter;html=1;align=center;shadow=0;dashed=0;spacingTop=3;image=img/lib/active_directory/cluster_server.svg;" parent="1" vertex="1">
          <mxGeometry x="281" y="1189" width="50" height="50" as="geometry" />
        </mxCell>
        <mxCell id="1GwevCP6RhUtGkenDWu2-6" value="Node" style="image;aspect=fixed;perimeter=ellipsePerimeter;html=1;align=center;shadow=0;dashed=0;spacingTop=3;image=img/lib/active_directory/generic_node.svg;labelPosition=center;verticalLabelPosition=top;verticalAlign=bottom;" parent="1" vertex="1">
          <mxGeometry x="30" y="1140" width="50" height="49" as="geometry" />
        </mxCell>
        <mxCell id="1GwevCP6RhUtGkenDWu2-14" value="" style="group" parent="1" vertex="1" connectable="0">
          <mxGeometry x="20" y="1245" width="80" height="47" as="geometry" />
        </mxCell>
        <mxCell id="1GwevCP6RhUtGkenDWu2-10" value="" style="image;aspect=fixed;perimeter=ellipsePerimeter;html=1;align=center;shadow=0;dashed=0;spacingTop=3;image=img/lib/active_directory/database.svg;" parent="1GwevCP6RhUtGkenDWu2-14" vertex="1">
          <mxGeometry width="50" height="37" as="geometry" />
        </mxCell>
        <mxCell id="1GwevCP6RhUtGkenDWu2-12" value="" style="image;aspect=fixed;perimeter=ellipsePerimeter;html=1;align=center;shadow=0;dashed=0;spacingTop=3;image=img/lib/active_directory/database.svg;" parent="1GwevCP6RhUtGkenDWu2-14" vertex="1">
          <mxGeometry x="30" width="50" height="37" as="geometry" />
        </mxCell>
        <mxCell id="1GwevCP6RhUtGkenDWu2-11" value="" style="image;aspect=fixed;perimeter=ellipsePerimeter;html=1;align=center;shadow=0;dashed=0;spacingTop=3;image=img/lib/active_directory/database.svg;" parent="1GwevCP6RhUtGkenDWu2-14" vertex="1">
          <mxGeometry x="10" y="10" width="50" height="37" as="geometry" />
        </mxCell>
        <mxCell id="1GwevCP6RhUtGkenDWu2-18" style="edgeStyle=orthogonalEdgeStyle;rounded=0;orthogonalLoop=1;jettySize=auto;html=1;exitX=0.5;exitY=0;exitDx=0;exitDy=0;entryX=0.5;entryY=1;entryDx=0;entryDy=0;" parent="1" source="1GwevCP6RhUtGkenDWu2-11" target="1GwevCP6RhUtGkenDWu2-6" edge="1">
          <mxGeometry relative="1" as="geometry" />
        </mxCell>
        <mxCell id="1GwevCP6RhUtGkenDWu2-22" value="" style="endArrow=none;html=1;rounded=0;" parent="1" edge="1">
          <mxGeometry width="50" height="50" relative="1" as="geometry">
            <mxPoint x="60" y="1320" as="sourcePoint" />
            <mxPoint x="260" y="1250" as="targetPoint" />
          </mxGeometry>
        </mxCell>
        <mxCell id="1GwevCP6RhUtGkenDWu2-23" value="" style="endArrow=none;html=1;rounded=0;" parent="1" edge="1">
          <mxGeometry width="50" height="50" relative="1" as="geometry">
            <mxPoint x="70" y="1120" as="sourcePoint" />
            <mxPoint x="260" y="1180" as="targetPoint" />
          </mxGeometry>
        </mxCell>
        <mxCell id="1GwevCP6RhUtGkenDWu2-24" value="Node" style="image;aspect=fixed;perimeter=ellipsePerimeter;html=1;align=center;shadow=0;dashed=0;spacingTop=3;image=img/lib/active_directory/database_server.svg;" parent="1" vertex="1">
          <mxGeometry x="130" y="359" width="41" height="50" as="geometry" />
        </mxCell>
        <mxCell id="1GwevCP6RhUtGkenDWu2-25" value="Node" style="image;aspect=fixed;perimeter=ellipsePerimeter;html=1;align=center;shadow=0;dashed=0;spacingTop=3;image=img/lib/active_directory/database_server.svg;" parent="1" vertex="1">
          <mxGeometry x="171" y="474" width="41" height="50" as="geometry" />
        </mxCell>
        <mxCell id="1GwevCP6RhUtGkenDWu2-26" value="Node" style="image;aspect=fixed;perimeter=ellipsePerimeter;html=1;align=center;shadow=0;dashed=0;spacingTop=3;image=img/lib/active_directory/database_server.svg;" parent="1" vertex="1">
          <mxGeometry x="290" y="420" width="41" height="50" as="geometry" />
        </mxCell>
        <mxCell id="1GwevCP6RhUtGkenDWu2-27" value="" style="endArrow=classic;startArrow=classic;html=1;rounded=0;exitX=0.5;exitY=0;exitDx=0;exitDy=0;fillColor=#f8cecc;strokeColor=default;strokeWidth=1;entryX=0.5;entryY=1;entryDx=0;entryDy=0;entryPerimeter=0;" parent="1" source="1GwevCP6RhUtGkenDWu2-28" edge="1" target="t-iEIm-53DTjFRoMse5Y-1">
          <mxGeometry width="50" height="50" relative="1" as="geometry">
            <mxPoint x="265.5" y="270" as="sourcePoint" />
            <mxPoint x="261" y="210" as="targetPoint" />
          </mxGeometry>
        </mxCell>
        <mxCell id="t-iEIm-53DTjFRoMse5Y-6" style="rounded=0;orthogonalLoop=1;jettySize=auto;html=1;exitX=0;exitY=0.75;exitDx=0;exitDy=0;entryX=1;entryY=0.5;entryDx=0;entryDy=0;" edge="1" parent="1" source="1GwevCP6RhUtGkenDWu2-28" target="1GwevCP6RhUtGkenDWu2-24">
          <mxGeometry relative="1" as="geometry" />
        </mxCell>
        <mxCell id="t-iEIm-53DTjFRoMse5Y-7" style="rounded=0;orthogonalLoop=1;jettySize=auto;html=1;exitX=0.25;exitY=1;exitDx=0;exitDy=0;entryX=0.75;entryY=0;entryDx=0;entryDy=0;" edge="1" parent="1" source="1GwevCP6RhUtGkenDWu2-28" target="1GwevCP6RhUtGkenDWu2-25">
          <mxGeometry relative="1" as="geometry" />
        </mxCell>
        <mxCell id="t-iEIm-53DTjFRoMse5Y-8" style="rounded=0;orthogonalLoop=1;jettySize=auto;html=1;exitX=0.75;exitY=1;exitDx=0;exitDy=0;entryX=0.25;entryY=0;entryDx=0;entryDy=0;" edge="1" parent="1" source="1GwevCP6RhUtGkenDWu2-28" target="1GwevCP6RhUtGkenDWu2-26">
          <mxGeometry relative="1" as="geometry" />
        </mxCell>
        <mxCell id="1GwevCP6RhUtGkenDWu2-28" value="Leader Node" style="image;aspect=fixed;perimeter=ellipsePerimeter;html=1;align=center;shadow=0;dashed=0;spacingTop=3;image=img/lib/active_directory/database_server.svg;fillColor=#f8cecc;strokeColor=default;strokeWidth=3;imageBackground=#FFF4C3;imageBorder=light-dark(#FFF4C3,#EDEDED);" parent="1" vertex="1">
          <mxGeometry x="240" y="330" width="41" height="50" as="geometry" />
        </mxCell>
        <mxCell id="t-iEIm-53DTjFRoMse5Y-1" value="" style="verticalLabelPosition=bottom;html=1;verticalAlign=top;align=center;strokeColor=none;fillColor=#00BEF2;shape=mxgraph.azure.computer;pointerEvents=1;" vertex="1" parent="1">
          <mxGeometry x="235.5" y="117" width="50" height="45" as="geometry" />
        </mxCell>
        <mxCell id="t-iEIm-53DTjFRoMse5Y-2" value="" style="verticalLabelPosition=bottom;html=1;verticalAlign=top;align=center;strokeColor=none;fillColor=#00BEF2;shape=mxgraph.azure.laptop;pointerEvents=1;" vertex="1" parent="1">
          <mxGeometry x="171" y="180" width="50" height="30" as="geometry" />
        </mxCell>
        <mxCell id="t-iEIm-53DTjFRoMse5Y-3" value="" style="sketch=0;outlineConnect=0;fontColor=#232F3E;gradientColor=none;fillColor=#ED7100;strokeColor=none;dashed=0;verticalLabelPosition=bottom;verticalAlign=top;align=center;html=1;fontSize=12;fontStyle=0;aspect=fixed;pointerEvents=1;shape=mxgraph.aws4.lambda_function;" vertex="1" parent="1">
          <mxGeometry x="322" y="162" width="48" height="48" as="geometry" />
        </mxCell>
        <mxCell id="t-iEIm-53DTjFRoMse5Y-4" value="" style="endArrow=classic;startArrow=classic;html=1;rounded=0;exitX=0.75;exitY=0;exitDx=0;exitDy=0;fillColor=#f8cecc;strokeColor=default;strokeWidth=1;entryX=0.167;entryY=1.042;entryDx=0;entryDy=0;entryPerimeter=0;" edge="1" parent="1" source="1GwevCP6RhUtGkenDWu2-28" target="t-iEIm-53DTjFRoMse5Y-3">
          <mxGeometry width="50" height="50" relative="1" as="geometry">
            <mxPoint x="271" y="340" as="sourcePoint" />
            <mxPoint x="271" y="220" as="targetPoint" />
          </mxGeometry>
        </mxCell>
        <mxCell id="t-iEIm-53DTjFRoMse5Y-5" value="" style="endArrow=classic;startArrow=classic;html=1;rounded=0;exitX=0.25;exitY=0;exitDx=0;exitDy=0;fillColor=#f8cecc;strokeColor=default;strokeWidth=1;entryX=0.5;entryY=1;entryDx=0;entryDy=0;entryPerimeter=0;" edge="1" parent="1" source="1GwevCP6RhUtGkenDWu2-28" target="t-iEIm-53DTjFRoMse5Y-2">
          <mxGeometry width="50" height="50" relative="1" as="geometry">
            <mxPoint x="171" y="331" as="sourcePoint" />
            <mxPoint x="232" y="210" as="targetPoint" />
          </mxGeometry>
        </mxCell>
        <mxCell id="t-iEIm-53DTjFRoMse5Y-9" value="Cluster" style="rounded=1;whiteSpace=wrap;html=1;align=center;labelPosition=center;verticalLabelPosition=bottom;verticalAlign=top;" vertex="1" parent="1">
          <mxGeometry x="1540" y="310" width="502.5" height="400" as="geometry" />
        </mxCell>
        <mxCell id="t-iEIm-53DTjFRoMse5Y-66" style="rounded=0;orthogonalLoop=1;jettySize=auto;html=1;exitX=0.243;exitY=0.997;exitDx=0;exitDy=0;exitPerimeter=0;entryX=0.5;entryY=0;entryDx=0;entryDy=0;" edge="1" parent="1" source="t-iEIm-53DTjFRoMse5Y-10" target="t-iEIm-53DTjFRoMse5Y-35">
          <mxGeometry relative="1" as="geometry" />
        </mxCell>
        <mxCell id="t-iEIm-53DTjFRoMse5Y-67" style="rounded=0;orthogonalLoop=1;jettySize=auto;html=1;exitX=0;exitY=0.85;exitDx=0;exitDy=0;exitPerimeter=0;entryX=0.5;entryY=0;entryDx=0;entryDy=0;" edge="1" parent="1" source="t-iEIm-53DTjFRoMse5Y-10" target="t-iEIm-53DTjFRoMse5Y-21">
          <mxGeometry relative="1" as="geometry" />
        </mxCell>
        <mxCell id="t-iEIm-53DTjFRoMse5Y-68" style="rounded=0;orthogonalLoop=1;jettySize=auto;html=1;exitX=0.749;exitY=0.974;exitDx=0;exitDy=0;exitPerimeter=0;entryX=0.5;entryY=0;entryDx=0;entryDy=0;" edge="1" parent="1" source="t-iEIm-53DTjFRoMse5Y-10" target="t-iEIm-53DTjFRoMse5Y-48">
          <mxGeometry relative="1" as="geometry" />
        </mxCell>
        <mxCell id="t-iEIm-53DTjFRoMse5Y-21" value="Customers" style="shape=table;startSize=30;container=1;collapsible=1;childLayout=tableLayout;fixedRows=1;rowLines=0;fontStyle=1;align=center;resizeLast=1;html=1;" vertex="1" parent="1">
          <mxGeometry x="712.5" y="375" width="120" height="150" as="geometry" />
        </mxCell>
        <mxCell id="t-iEIm-53DTjFRoMse5Y-22" value="" style="shape=tableRow;horizontal=0;startSize=0;swimlaneHead=0;swimlaneBody=0;fillColor=none;collapsible=0;dropTarget=0;points=[[0,0.5],[1,0.5]];portConstraint=eastwest;top=0;left=0;right=0;bottom=1;" vertex="1" parent="t-iEIm-53DTjFRoMse5Y-21">
          <mxGeometry y="30" width="120" height="30" as="geometry" />
        </mxCell>
        <mxCell id="t-iEIm-53DTjFRoMse5Y-23" value="PK" style="shape=partialRectangle;connectable=0;fillColor=none;top=0;left=0;bottom=0;right=0;fontStyle=1;overflow=hidden;whiteSpace=wrap;html=1;" vertex="1" parent="t-iEIm-53DTjFRoMse5Y-22">
          <mxGeometry width="30" height="30" as="geometry">
            <mxRectangle width="30" height="30" as="alternateBounds" />
          </mxGeometry>
        </mxCell>
        <mxCell id="t-iEIm-53DTjFRoMse5Y-24" value="CustomerID" style="shape=partialRectangle;connectable=0;fillColor=none;top=0;left=0;bottom=0;right=0;align=left;spacingLeft=6;fontStyle=5;overflow=hidden;whiteSpace=wrap;html=1;" vertex="1" parent="t-iEIm-53DTjFRoMse5Y-22">
          <mxGeometry x="30" width="90" height="30" as="geometry">
            <mxRectangle width="90" height="30" as="alternateBounds" />
          </mxGeometry>
        </mxCell>
        <mxCell id="t-iEIm-53DTjFRoMse5Y-25" value="" style="shape=tableRow;horizontal=0;startSize=0;swimlaneHead=0;swimlaneBody=0;fillColor=none;collapsible=0;dropTarget=0;points=[[0,0.5],[1,0.5]];portConstraint=eastwest;top=0;left=0;right=0;bottom=0;" vertex="1" parent="t-iEIm-53DTjFRoMse5Y-21">
          <mxGeometry y="60" width="120" height="30" as="geometry" />
        </mxCell>
        <mxCell id="t-iEIm-53DTjFRoMse5Y-26" value="" style="shape=partialRectangle;connectable=0;fillColor=none;top=0;left=0;bottom=0;right=0;editable=1;overflow=hidden;whiteSpace=wrap;html=1;" vertex="1" parent="t-iEIm-53DTjFRoMse5Y-25">
          <mxGeometry width="30" height="30" as="geometry">
            <mxRectangle width="30" height="30" as="alternateBounds" />
          </mxGeometry>
        </mxCell>
        <mxCell id="t-iEIm-53DTjFRoMse5Y-27" value="Name" style="shape=partialRectangle;connectable=0;fillColor=none;top=0;left=0;bottom=0;right=0;align=left;spacingLeft=6;overflow=hidden;whiteSpace=wrap;html=1;" vertex="1" parent="t-iEIm-53DTjFRoMse5Y-25">
          <mxGeometry x="30" width="90" height="30" as="geometry">
            <mxRectangle width="90" height="30" as="alternateBounds" />
          </mxGeometry>
        </mxCell>
        <mxCell id="t-iEIm-53DTjFRoMse5Y-28" value="" style="shape=tableRow;horizontal=0;startSize=0;swimlaneHead=0;swimlaneBody=0;fillColor=none;collapsible=0;dropTarget=0;points=[[0,0.5],[1,0.5]];portConstraint=eastwest;top=0;left=0;right=0;bottom=0;" vertex="1" parent="t-iEIm-53DTjFRoMse5Y-21">
          <mxGeometry y="90" width="120" height="30" as="geometry" />
        </mxCell>
        <mxCell id="t-iEIm-53DTjFRoMse5Y-29" value="" style="shape=partialRectangle;connectable=0;fillColor=none;top=0;left=0;bottom=0;right=0;editable=1;overflow=hidden;whiteSpace=wrap;html=1;" vertex="1" parent="t-iEIm-53DTjFRoMse5Y-28">
          <mxGeometry width="30" height="30" as="geometry">
            <mxRectangle width="30" height="30" as="alternateBounds" />
          </mxGeometry>
        </mxCell>
        <mxCell id="t-iEIm-53DTjFRoMse5Y-30" value="Payment type" style="shape=partialRectangle;connectable=0;fillColor=none;top=0;left=0;bottom=0;right=0;align=left;spacingLeft=6;overflow=hidden;whiteSpace=wrap;html=1;" vertex="1" parent="t-iEIm-53DTjFRoMse5Y-28">
          <mxGeometry x="30" width="90" height="30" as="geometry">
            <mxRectangle width="90" height="30" as="alternateBounds" />
          </mxGeometry>
        </mxCell>
        <mxCell id="t-iEIm-53DTjFRoMse5Y-31" value="" style="shape=tableRow;horizontal=0;startSize=0;swimlaneHead=0;swimlaneBody=0;fillColor=none;collapsible=0;dropTarget=0;points=[[0,0.5],[1,0.5]];portConstraint=eastwest;top=0;left=0;right=0;bottom=0;" vertex="1" parent="t-iEIm-53DTjFRoMse5Y-21">
          <mxGeometry y="120" width="120" height="30" as="geometry" />
        </mxCell>
        <mxCell id="t-iEIm-53DTjFRoMse5Y-32" value="" style="shape=partialRectangle;connectable=0;fillColor=none;top=0;left=0;bottom=0;right=0;editable=1;overflow=hidden;whiteSpace=wrap;html=1;" vertex="1" parent="t-iEIm-53DTjFRoMse5Y-31">
          <mxGeometry width="30" height="30" as="geometry">
            <mxRectangle width="30" height="30" as="alternateBounds" />
          </mxGeometry>
        </mxCell>
        <mxCell id="t-iEIm-53DTjFRoMse5Y-33" value="Location" style="shape=partialRectangle;connectable=0;fillColor=none;top=0;left=0;bottom=0;right=0;align=left;spacingLeft=6;overflow=hidden;whiteSpace=wrap;html=1;" vertex="1" parent="t-iEIm-53DTjFRoMse5Y-31">
          <mxGeometry x="30" width="90" height="30" as="geometry">
            <mxRectangle width="90" height="30" as="alternateBounds" />
          </mxGeometry>
        </mxCell>
        <mxCell id="t-iEIm-53DTjFRoMse5Y-35" value="Sales" style="shape=table;startSize=30;container=1;collapsible=1;childLayout=tableLayout;fixedRows=1;rowLines=0;fontStyle=1;align=center;resizeLast=1;html=1;" vertex="1" parent="1">
          <mxGeometry x="847.5" y="375" width="110" height="180" as="geometry" />
        </mxCell>
        <mxCell id="t-iEIm-53DTjFRoMse5Y-36" value="" style="shape=tableRow;horizontal=0;startSize=0;swimlaneHead=0;swimlaneBody=0;fillColor=none;collapsible=0;dropTarget=0;points=[[0,0.5],[1,0.5]];portConstraint=eastwest;top=0;left=0;right=0;bottom=1;" vertex="1" parent="t-iEIm-53DTjFRoMse5Y-35">
          <mxGeometry y="30" width="110" height="30" as="geometry" />
        </mxCell>
        <mxCell id="t-iEIm-53DTjFRoMse5Y-37" value="PK" style="shape=partialRectangle;connectable=0;fillColor=none;top=0;left=0;bottom=0;right=0;fontStyle=1;overflow=hidden;whiteSpace=wrap;html=1;" vertex="1" parent="t-iEIm-53DTjFRoMse5Y-36">
          <mxGeometry width="30" height="30" as="geometry">
            <mxRectangle width="30" height="30" as="alternateBounds" />
          </mxGeometry>
        </mxCell>
        <mxCell id="t-iEIm-53DTjFRoMse5Y-38" value="SaleID" style="shape=partialRectangle;connectable=0;fillColor=none;top=0;left=0;bottom=0;right=0;align=left;spacingLeft=6;fontStyle=5;overflow=hidden;whiteSpace=wrap;html=1;" vertex="1" parent="t-iEIm-53DTjFRoMse5Y-36">
          <mxGeometry x="30" width="80" height="30" as="geometry">
            <mxRectangle width="80" height="30" as="alternateBounds" />
          </mxGeometry>
        </mxCell>
        <mxCell id="t-iEIm-53DTjFRoMse5Y-39" value="" style="shape=tableRow;horizontal=0;startSize=0;swimlaneHead=0;swimlaneBody=0;fillColor=none;collapsible=0;dropTarget=0;points=[[0,0.5],[1,0.5]];portConstraint=eastwest;top=0;left=0;right=0;bottom=0;" vertex="1" parent="t-iEIm-53DTjFRoMse5Y-35">
          <mxGeometry y="60" width="110" height="30" as="geometry" />
        </mxCell>
        <mxCell id="t-iEIm-53DTjFRoMse5Y-40" value="" style="shape=partialRectangle;connectable=0;fillColor=none;top=0;left=0;bottom=0;right=0;editable=1;overflow=hidden;whiteSpace=wrap;html=1;" vertex="1" parent="t-iEIm-53DTjFRoMse5Y-39">
          <mxGeometry width="30" height="30" as="geometry">
            <mxRectangle width="30" height="30" as="alternateBounds" />
          </mxGeometry>
        </mxCell>
        <mxCell id="t-iEIm-53DTjFRoMse5Y-41" value="Item" style="shape=partialRectangle;connectable=0;fillColor=none;top=0;left=0;bottom=0;right=0;align=left;spacingLeft=6;overflow=hidden;whiteSpace=wrap;html=1;" vertex="1" parent="t-iEIm-53DTjFRoMse5Y-39">
          <mxGeometry x="30" width="80" height="30" as="geometry">
            <mxRectangle width="80" height="30" as="alternateBounds" />
          </mxGeometry>
        </mxCell>
        <mxCell id="t-iEIm-53DTjFRoMse5Y-42" value="" style="shape=tableRow;horizontal=0;startSize=0;swimlaneHead=0;swimlaneBody=0;fillColor=none;collapsible=0;dropTarget=0;points=[[0,0.5],[1,0.5]];portConstraint=eastwest;top=0;left=0;right=0;bottom=0;" vertex="1" parent="t-iEIm-53DTjFRoMse5Y-35">
          <mxGeometry y="90" width="110" height="30" as="geometry" />
        </mxCell>
        <mxCell id="t-iEIm-53DTjFRoMse5Y-43" value="" style="shape=partialRectangle;connectable=0;fillColor=none;top=0;left=0;bottom=0;right=0;editable=1;overflow=hidden;whiteSpace=wrap;html=1;" vertex="1" parent="t-iEIm-53DTjFRoMse5Y-42">
          <mxGeometry width="30" height="30" as="geometry">
            <mxRectangle width="30" height="30" as="alternateBounds" />
          </mxGeometry>
        </mxCell>
        <mxCell id="t-iEIm-53DTjFRoMse5Y-44" value="Value" style="shape=partialRectangle;connectable=0;fillColor=none;top=0;left=0;bottom=0;right=0;align=left;spacingLeft=6;overflow=hidden;whiteSpace=wrap;html=1;" vertex="1" parent="t-iEIm-53DTjFRoMse5Y-42">
          <mxGeometry x="30" width="80" height="30" as="geometry">
            <mxRectangle width="80" height="30" as="alternateBounds" />
          </mxGeometry>
        </mxCell>
        <mxCell id="t-iEIm-53DTjFRoMse5Y-45" value="" style="shape=tableRow;horizontal=0;startSize=0;swimlaneHead=0;swimlaneBody=0;fillColor=none;collapsible=0;dropTarget=0;points=[[0,0.5],[1,0.5]];portConstraint=eastwest;top=0;left=0;right=0;bottom=0;" vertex="1" parent="t-iEIm-53DTjFRoMse5Y-35">
          <mxGeometry y="120" width="110" height="30" as="geometry" />
        </mxCell>
        <mxCell id="t-iEIm-53DTjFRoMse5Y-46" value="" style="shape=partialRectangle;connectable=0;fillColor=none;top=0;left=0;bottom=0;right=0;editable=1;overflow=hidden;whiteSpace=wrap;html=1;" vertex="1" parent="t-iEIm-53DTjFRoMse5Y-45">
          <mxGeometry width="30" height="30" as="geometry">
            <mxRectangle width="30" height="30" as="alternateBounds" />
          </mxGeometry>
        </mxCell>
        <mxCell id="t-iEIm-53DTjFRoMse5Y-47" value="StoreID" style="shape=partialRectangle;connectable=0;fillColor=none;top=0;left=0;bottom=0;right=0;align=left;spacingLeft=6;overflow=hidden;whiteSpace=wrap;html=1;" vertex="1" parent="t-iEIm-53DTjFRoMse5Y-45">
          <mxGeometry x="30" width="80" height="30" as="geometry">
            <mxRectangle width="80" height="30" as="alternateBounds" />
          </mxGeometry>
        </mxCell>
        <mxCell id="t-iEIm-53DTjFRoMse5Y-61" value="" style="shape=tableRow;horizontal=0;startSize=0;swimlaneHead=0;swimlaneBody=0;fillColor=none;collapsible=0;dropTarget=0;points=[[0,0.5],[1,0.5]];portConstraint=eastwest;top=0;left=0;right=0;bottom=0;" vertex="1" parent="t-iEIm-53DTjFRoMse5Y-35">
          <mxGeometry y="150" width="110" height="30" as="geometry" />
        </mxCell>
        <mxCell id="t-iEIm-53DTjFRoMse5Y-62" value="" style="shape=partialRectangle;connectable=0;fillColor=none;top=0;left=0;bottom=0;right=0;editable=1;overflow=hidden;whiteSpace=wrap;html=1;" vertex="1" parent="t-iEIm-53DTjFRoMse5Y-61">
          <mxGeometry width="30" height="30" as="geometry">
            <mxRectangle width="30" height="30" as="alternateBounds" />
          </mxGeometry>
        </mxCell>
        <mxCell id="t-iEIm-53DTjFRoMse5Y-63" value="CustomerID" style="shape=partialRectangle;connectable=0;fillColor=none;top=0;left=0;bottom=0;right=0;align=left;spacingLeft=6;overflow=hidden;whiteSpace=wrap;html=1;" vertex="1" parent="t-iEIm-53DTjFRoMse5Y-61">
          <mxGeometry x="30" width="80" height="30" as="geometry">
            <mxRectangle width="80" height="30" as="alternateBounds" />
          </mxGeometry>
        </mxCell>
        <mxCell id="t-iEIm-53DTjFRoMse5Y-48" value="Stores" style="shape=table;startSize=30;container=1;collapsible=1;childLayout=tableLayout;fixedRows=1;rowLines=0;fontStyle=1;align=center;resizeLast=1;html=1;" vertex="1" parent="1">
          <mxGeometry x="972.5" y="375" width="140" height="120" as="geometry" />
        </mxCell>
        <mxCell id="t-iEIm-53DTjFRoMse5Y-49" value="" style="shape=tableRow;horizontal=0;startSize=0;swimlaneHead=0;swimlaneBody=0;fillColor=none;collapsible=0;dropTarget=0;points=[[0,0.5],[1,0.5]];portConstraint=eastwest;top=0;left=0;right=0;bottom=1;" vertex="1" parent="t-iEIm-53DTjFRoMse5Y-48">
          <mxGeometry y="30" width="140" height="30" as="geometry" />
        </mxCell>
        <mxCell id="t-iEIm-53DTjFRoMse5Y-50" value="PK" style="shape=partialRectangle;connectable=0;fillColor=none;top=0;left=0;bottom=0;right=0;fontStyle=1;overflow=hidden;whiteSpace=wrap;html=1;" vertex="1" parent="t-iEIm-53DTjFRoMse5Y-49">
          <mxGeometry width="30" height="30" as="geometry">
            <mxRectangle width="30" height="30" as="alternateBounds" />
          </mxGeometry>
        </mxCell>
        <mxCell id="t-iEIm-53DTjFRoMse5Y-51" value="StoreID" style="shape=partialRectangle;connectable=0;fillColor=none;top=0;left=0;bottom=0;right=0;align=left;spacingLeft=6;fontStyle=5;overflow=hidden;whiteSpace=wrap;html=1;" vertex="1" parent="t-iEIm-53DTjFRoMse5Y-49">
          <mxGeometry x="30" width="110" height="30" as="geometry">
            <mxRectangle width="110" height="30" as="alternateBounds" />
          </mxGeometry>
        </mxCell>
        <mxCell id="t-iEIm-53DTjFRoMse5Y-52" value="" style="shape=tableRow;horizontal=0;startSize=0;swimlaneHead=0;swimlaneBody=0;fillColor=none;collapsible=0;dropTarget=0;points=[[0,0.5],[1,0.5]];portConstraint=eastwest;top=0;left=0;right=0;bottom=0;" vertex="1" parent="t-iEIm-53DTjFRoMse5Y-48">
          <mxGeometry y="60" width="140" height="30" as="geometry" />
        </mxCell>
        <mxCell id="t-iEIm-53DTjFRoMse5Y-53" value="" style="shape=partialRectangle;connectable=0;fillColor=none;top=0;left=0;bottom=0;right=0;editable=1;overflow=hidden;whiteSpace=wrap;html=1;" vertex="1" parent="t-iEIm-53DTjFRoMse5Y-52">
          <mxGeometry width="30" height="30" as="geometry">
            <mxRectangle width="30" height="30" as="alternateBounds" />
          </mxGeometry>
        </mxCell>
        <mxCell id="t-iEIm-53DTjFRoMse5Y-54" value="Location" style="shape=partialRectangle;connectable=0;fillColor=none;top=0;left=0;bottom=0;right=0;align=left;spacingLeft=6;overflow=hidden;whiteSpace=wrap;html=1;" vertex="1" parent="t-iEIm-53DTjFRoMse5Y-52">
          <mxGeometry x="30" width="110" height="30" as="geometry">
            <mxRectangle width="110" height="30" as="alternateBounds" />
          </mxGeometry>
        </mxCell>
        <mxCell id="t-iEIm-53DTjFRoMse5Y-55" value="" style="shape=tableRow;horizontal=0;startSize=0;swimlaneHead=0;swimlaneBody=0;fillColor=none;collapsible=0;dropTarget=0;points=[[0,0.5],[1,0.5]];portConstraint=eastwest;top=0;left=0;right=0;bottom=0;" vertex="1" parent="t-iEIm-53DTjFRoMse5Y-48">
          <mxGeometry y="90" width="140" height="30" as="geometry" />
        </mxCell>
        <mxCell id="t-iEIm-53DTjFRoMse5Y-56" value="" style="shape=partialRectangle;connectable=0;fillColor=none;top=0;left=0;bottom=0;right=0;editable=1;overflow=hidden;whiteSpace=wrap;html=1;" vertex="1" parent="t-iEIm-53DTjFRoMse5Y-55">
          <mxGeometry width="30" height="30" as="geometry">
            <mxRectangle width="30" height="30" as="alternateBounds" />
          </mxGeometry>
        </mxCell>
        <mxCell id="t-iEIm-53DTjFRoMse5Y-57" value="Inauguration Date" style="shape=partialRectangle;connectable=0;fillColor=none;top=0;left=0;bottom=0;right=0;align=left;spacingLeft=6;overflow=hidden;whiteSpace=wrap;html=1;" vertex="1" parent="t-iEIm-53DTjFRoMse5Y-55">
          <mxGeometry x="30" width="110" height="30" as="geometry">
            <mxRectangle width="110" height="30" as="alternateBounds" />
          </mxGeometry>
        </mxCell>
        <mxCell id="t-iEIm-53DTjFRoMse5Y-65" value="Inventory" style="strokeWidth=2;html=1;shape=mxgraph.flowchart.database;whiteSpace=wrap;" vertex="1" parent="1">
          <mxGeometry x="1140" y="240" width="60" height="60" as="geometry" />
        </mxCell>
        <mxCell id="t-iEIm-53DTjFRoMse5Y-64" value="Finances" style="strokeWidth=2;html=1;shape=mxgraph.flowchart.database;whiteSpace=wrap;" vertex="1" parent="1">
          <mxGeometry x="1200" y="240" width="60" height="60" as="geometry" />
        </mxCell>
        <mxCell id="t-iEIm-53DTjFRoMse5Y-82" style="rounded=0;orthogonalLoop=1;jettySize=auto;html=1;exitX=1;exitY=0.85;exitDx=0;exitDy=0;exitPerimeter=0;entryX=0.5;entryY=0;entryDx=0;entryDy=0;" edge="1" parent="1" source="t-iEIm-53DTjFRoMse5Y-10" target="t-iEIm-53DTjFRoMse5Y-72">
          <mxGeometry relative="1" as="geometry" />
        </mxCell>
        <mxCell id="t-iEIm-53DTjFRoMse5Y-10" value="&lt;div&gt;&lt;br&gt;&lt;/div&gt;Sales Data" style="strokeWidth=2;html=1;shape=mxgraph.flowchart.database;whiteSpace=wrap;" vertex="1" parent="1">
          <mxGeometry x="930" y="255" width="60" height="60" as="geometry" />
        </mxCell>
        <mxCell id="t-iEIm-53DTjFRoMse5Y-69" value="..." style="strokeWidth=2;html=1;shape=mxgraph.flowchart.database;whiteSpace=wrap;" vertex="1" parent="1">
          <mxGeometry x="1170" y="280" width="60" height="60" as="geometry" />
        </mxCell>
        <mxCell id="t-iEIm-53DTjFRoMse5Y-70" value="..." style="text;html=1;align=center;verticalAlign=middle;whiteSpace=wrap;rounded=0;fontSize=24;" vertex="1" parent="1">
          <mxGeometry x="1040" y="275" width="60" height="30" as="geometry" />
        </mxCell>
        <mxCell id="t-iEIm-53DTjFRoMse5Y-72" value="..." style="shape=table;startSize=30;container=1;collapsible=1;childLayout=tableLayout;fixedRows=1;rowLines=0;fontStyle=1;align=center;resizeLast=1;html=1;" vertex="1" parent="1">
          <mxGeometry x="1137.5" y="375" width="70" height="120" as="geometry" />
        </mxCell>
        <mxCell id="t-iEIm-53DTjFRoMse5Y-73" value="" style="shape=tableRow;horizontal=0;startSize=0;swimlaneHead=0;swimlaneBody=0;fillColor=none;collapsible=0;dropTarget=0;points=[[0,0.5],[1,0.5]];portConstraint=eastwest;top=0;left=0;right=0;bottom=1;" vertex="1" parent="t-iEIm-53DTjFRoMse5Y-72">
          <mxGeometry y="30" width="70" height="30" as="geometry" />
        </mxCell>
        <mxCell id="t-iEIm-53DTjFRoMse5Y-74" value="PK" style="shape=partialRectangle;connectable=0;fillColor=none;top=0;left=0;bottom=0;right=0;fontStyle=1;overflow=hidden;whiteSpace=wrap;html=1;" vertex="1" parent="t-iEIm-53DTjFRoMse5Y-73">
          <mxGeometry width="30" height="30" as="geometry">
            <mxRectangle width="30" height="30" as="alternateBounds" />
          </mxGeometry>
        </mxCell>
        <mxCell id="t-iEIm-53DTjFRoMse5Y-75" value="...ID" style="shape=partialRectangle;connectable=0;fillColor=none;top=0;left=0;bottom=0;right=0;align=left;spacingLeft=6;fontStyle=5;overflow=hidden;whiteSpace=wrap;html=1;" vertex="1" parent="t-iEIm-53DTjFRoMse5Y-73">
          <mxGeometry x="30" width="40" height="30" as="geometry">
            <mxRectangle width="40" height="30" as="alternateBounds" />
          </mxGeometry>
        </mxCell>
        <mxCell id="t-iEIm-53DTjFRoMse5Y-76" value="" style="shape=tableRow;horizontal=0;startSize=0;swimlaneHead=0;swimlaneBody=0;fillColor=none;collapsible=0;dropTarget=0;points=[[0,0.5],[1,0.5]];portConstraint=eastwest;top=0;left=0;right=0;bottom=0;" vertex="1" parent="t-iEIm-53DTjFRoMse5Y-72">
          <mxGeometry y="60" width="70" height="30" as="geometry" />
        </mxCell>
        <mxCell id="t-iEIm-53DTjFRoMse5Y-77" value="" style="shape=partialRectangle;connectable=0;fillColor=none;top=0;left=0;bottom=0;right=0;editable=1;overflow=hidden;whiteSpace=wrap;html=1;" vertex="1" parent="t-iEIm-53DTjFRoMse5Y-76">
          <mxGeometry width="30" height="30" as="geometry">
            <mxRectangle width="30" height="30" as="alternateBounds" />
          </mxGeometry>
        </mxCell>
        <mxCell id="t-iEIm-53DTjFRoMse5Y-78" value="..." style="shape=partialRectangle;connectable=0;fillColor=none;top=0;left=0;bottom=0;right=0;align=left;spacingLeft=6;overflow=hidden;whiteSpace=wrap;html=1;" vertex="1" parent="t-iEIm-53DTjFRoMse5Y-76">
          <mxGeometry x="30" width="40" height="30" as="geometry">
            <mxRectangle width="40" height="30" as="alternateBounds" />
          </mxGeometry>
        </mxCell>
        <mxCell id="t-iEIm-53DTjFRoMse5Y-79" value="" style="shape=tableRow;horizontal=0;startSize=0;swimlaneHead=0;swimlaneBody=0;fillColor=none;collapsible=0;dropTarget=0;points=[[0,0.5],[1,0.5]];portConstraint=eastwest;top=0;left=0;right=0;bottom=0;" vertex="1" parent="t-iEIm-53DTjFRoMse5Y-72">
          <mxGeometry y="90" width="70" height="30" as="geometry" />
        </mxCell>
        <mxCell id="t-iEIm-53DTjFRoMse5Y-80" value="" style="shape=partialRectangle;connectable=0;fillColor=none;top=0;left=0;bottom=0;right=0;editable=1;overflow=hidden;whiteSpace=wrap;html=1;" vertex="1" parent="t-iEIm-53DTjFRoMse5Y-79">
          <mxGeometry width="30" height="30" as="geometry">
            <mxRectangle width="30" height="30" as="alternateBounds" />
          </mxGeometry>
        </mxCell>
        <mxCell id="t-iEIm-53DTjFRoMse5Y-81" value="..." style="shape=partialRectangle;connectable=0;fillColor=none;top=0;left=0;bottom=0;right=0;align=left;spacingLeft=6;overflow=hidden;whiteSpace=wrap;html=1;" vertex="1" parent="t-iEIm-53DTjFRoMse5Y-79">
          <mxGeometry x="30" width="40" height="30" as="geometry">
            <mxRectangle width="40" height="30" as="alternateBounds" />
          </mxGeometry>
        </mxCell>
        <mxCell id="t-iEIm-53DTjFRoMse5Y-90" value="Node" style="image;aspect=fixed;perimeter=ellipsePerimeter;html=1;align=right;shadow=0;dashed=0;spacingTop=3;image=img/lib/active_directory/generic_node.svg;labelPosition=left;verticalLabelPosition=middle;verticalAlign=middle;" vertex="1" parent="1">
          <mxGeometry x="1625" y="400" width="50" height="49" as="geometry" />
        </mxCell>
        <mxCell id="t-iEIm-53DTjFRoMse5Y-111" value="" style="group" vertex="1" connectable="0" parent="1">
          <mxGeometry x="400" y="1100" width="79.5" height="97" as="geometry" />
        </mxCell>
        <mxCell id="t-iEIm-53DTjFRoMse5Y-103" value="" style="group" vertex="1" connectable="0" parent="t-iEIm-53DTjFRoMse5Y-111">
          <mxGeometry x="19.5" width="60" height="97.00000000000003" as="geometry" />
        </mxCell>
        <mxCell id="t-iEIm-53DTjFRoMse5Y-104" value="" style="image;aspect=fixed;perimeter=ellipsePerimeter;html=1;align=center;shadow=0;dashed=0;spacingTop=3;image=img/lib/active_directory/database.svg;" vertex="1" parent="t-iEIm-53DTjFRoMse5Y-103">
          <mxGeometry y="38.60000000000002" width="60" height="44.4" as="geometry" />
        </mxCell>
        <mxCell id="t-iEIm-53DTjFRoMse5Y-105" value="" style="image;aspect=fixed;perimeter=ellipsePerimeter;html=1;align=center;shadow=0;dashed=0;spacingTop=3;image=img/lib/active_directory/database.svg;" vertex="1" parent="t-iEIm-53DTjFRoMse5Y-103">
          <mxGeometry y="19.600000000000023" width="60" height="44.4" as="geometry" />
        </mxCell>
        <mxCell id="t-iEIm-53DTjFRoMse5Y-106" value="" style="image;aspect=fixed;perimeter=ellipsePerimeter;html=1;align=center;shadow=0;dashed=0;spacingTop=3;image=img/lib/active_directory/database.svg;" vertex="1" parent="t-iEIm-53DTjFRoMse5Y-103">
          <mxGeometry width="60" height="44.4" as="geometry" />
        </mxCell>
        <mxCell id="t-iEIm-53DTjFRoMse5Y-102" value="" style="group" vertex="1" connectable="0" parent="t-iEIm-53DTjFRoMse5Y-103">
          <mxGeometry x="-47.5" y="-1" width="87.5" height="83" as="geometry" />
        </mxCell>
        <mxCell id="t-iEIm-53DTjFRoMse5Y-88" value="" style="image;aspect=fixed;perimeter=ellipsePerimeter;html=1;align=center;shadow=0;dashed=0;spacingTop=3;image=img/lib/active_directory/database.svg;" vertex="1" parent="t-iEIm-53DTjFRoMse5Y-102">
          <mxGeometry y="38.60000000000002" width="60" height="44.4" as="geometry" />
        </mxCell>
        <mxCell id="t-iEIm-53DTjFRoMse5Y-94" value="" style="image;aspect=fixed;perimeter=ellipsePerimeter;html=1;align=center;shadow=0;dashed=0;spacingTop=3;image=img/lib/active_directory/database.svg;" vertex="1" parent="t-iEIm-53DTjFRoMse5Y-102">
          <mxGeometry y="19.600000000000023" width="60" height="44.4" as="geometry" />
        </mxCell>
        <mxCell id="t-iEIm-53DTjFRoMse5Y-95" value="" style="image;aspect=fixed;perimeter=ellipsePerimeter;html=1;align=center;shadow=0;dashed=0;spacingTop=3;image=img/lib/active_directory/database.svg;" vertex="1" parent="t-iEIm-53DTjFRoMse5Y-102">
          <mxGeometry width="60" height="44.4" as="geometry" />
        </mxCell>
        <mxCell id="t-iEIm-53DTjFRoMse5Y-108" value="" style="image;aspect=fixed;perimeter=ellipsePerimeter;html=1;align=center;shadow=0;dashed=0;spacingTop=3;image=img/lib/active_directory/database.svg;" vertex="1" parent="t-iEIm-53DTjFRoMse5Y-103">
          <mxGeometry x="-27.5" y="52.60000000000002" width="60" height="44.4" as="geometry" />
        </mxCell>
        <mxCell id="t-iEIm-53DTjFRoMse5Y-109" value="" style="image;aspect=fixed;perimeter=ellipsePerimeter;html=1;align=center;shadow=0;dashed=0;spacingTop=3;image=img/lib/active_directory/database.svg;" vertex="1" parent="t-iEIm-53DTjFRoMse5Y-103">
          <mxGeometry x="-27.5" y="33.60000000000002" width="60" height="44.4" as="geometry" />
        </mxCell>
        <mxCell id="t-iEIm-53DTjFRoMse5Y-110" value="" style="image;aspect=fixed;perimeter=ellipsePerimeter;html=1;align=center;shadow=0;dashed=0;spacingTop=3;image=img/lib/active_directory/database.svg;" vertex="1" parent="t-iEIm-53DTjFRoMse5Y-111">
          <mxGeometry y="20" width="60" height="44.4" as="geometry" />
        </mxCell>
        <mxCell id="t-iEIm-53DTjFRoMse5Y-121" value="" style="strokeWidth=2;html=1;shape=mxgraph.flowchart.database;whiteSpace=wrap;fillColor=#d5e8d4;strokeColor=#82b366;" vertex="1" parent="1">
          <mxGeometry x="1812.5" y="520" width="60" height="20" as="geometry" />
        </mxCell>
        <mxCell id="t-iEIm-53DTjFRoMse5Y-123" value="" style="strokeWidth=2;html=1;shape=mxgraph.flowchart.database;whiteSpace=wrap;fillColor=#e1d5e7;strokeColor=#9673a6;" vertex="1" parent="1">
          <mxGeometry x="1620" y="490" width="60" height="20" as="geometry" />
        </mxCell>
        <mxCell id="t-iEIm-53DTjFRoMse5Y-125" value="" style="image;aspect=fixed;perimeter=ellipsePerimeter;html=1;align=center;shadow=0;dashed=0;spacingTop=3;image=img/lib/active_directory/generic_node.svg;labelPosition=center;verticalLabelPosition=top;verticalAlign=bottom;" vertex="1" parent="1">
          <mxGeometry x="1817.5" y="431" width="50" height="49" as="geometry" />
        </mxCell>
        <mxCell id="t-iEIm-53DTjFRoMse5Y-126" value="" style="image;aspect=fixed;perimeter=ellipsePerimeter;html=1;align=center;shadow=0;dashed=0;spacingTop=3;image=img/lib/active_directory/generic_node.svg;labelPosition=center;verticalLabelPosition=top;verticalAlign=bottom;" vertex="1" parent="1">
          <mxGeometry x="1659.5" y="570" width="50" height="49" as="geometry" />
        </mxCell>
        <mxCell id="t-iEIm-53DTjFRoMse5Y-127" value="" style="image;aspect=fixed;perimeter=ellipsePerimeter;html=1;align=center;shadow=0;dashed=0;spacingTop=3;image=img/lib/active_directory/generic_node.svg;labelPosition=center;verticalLabelPosition=top;verticalAlign=bottom;" vertex="1" parent="1">
          <mxGeometry x="1927.5" y="560" width="50" height="49" as="geometry" />
        </mxCell>
        <mxCell id="t-iEIm-53DTjFRoMse5Y-128" value="" style="strokeWidth=2;html=1;shape=mxgraph.flowchart.database;whiteSpace=wrap;fillColor=#f8cecc;strokeColor=#b85450;" vertex="1" parent="1">
          <mxGeometry x="1620" y="470" width="60" height="20" as="geometry" />
        </mxCell>
        <mxCell id="t-iEIm-53DTjFRoMse5Y-129" value="" style="strokeWidth=2;html=1;shape=mxgraph.flowchart.database;whiteSpace=wrap;fillColor=#f8cecc;strokeColor=#b85450;" vertex="1" parent="1">
          <mxGeometry x="1812.5" y="540" width="60" height="20" as="geometry" />
        </mxCell>
        <mxCell id="t-iEIm-53DTjFRoMse5Y-130" value="" style="strokeWidth=2;html=1;shape=mxgraph.flowchart.database;whiteSpace=wrap;fillColor=#e1d5e7;strokeColor=#9673a6;" vertex="1" parent="1">
          <mxGeometry x="1922.5" y="640" width="60" height="20" as="geometry" />
        </mxCell>
        <mxCell id="t-iEIm-53DTjFRoMse5Y-131" value="" style="strokeWidth=2;html=1;shape=mxgraph.flowchart.database;whiteSpace=wrap;fillColor=#e1d5e7;strokeColor=#9673a6;" vertex="1" parent="1">
          <mxGeometry x="1922.5" y="620" width="60" height="20" as="geometry" />
        </mxCell>
        <mxCell id="t-iEIm-53DTjFRoMse5Y-132" value="" style="strokeWidth=2;html=1;shape=mxgraph.flowchart.database;whiteSpace=wrap;fillColor=#e1d5e7;strokeColor=#9673a6;" vertex="1" parent="1">
          <mxGeometry x="1812.5" y="500" width="60" height="20" as="geometry" />
        </mxCell>
        <mxCell id="t-iEIm-53DTjFRoMse5Y-133" value="" style="strokeWidth=2;html=1;shape=mxgraph.flowchart.database;whiteSpace=wrap;fillColor=#d5e8d4;strokeColor=#82b366;" vertex="1" parent="1">
          <mxGeometry x="1655" y="660" width="60" height="20" as="geometry" />
        </mxCell>
        <mxCell id="t-iEIm-53DTjFRoMse5Y-135" value="" style="group" vertex="1" connectable="0" parent="1">
          <mxGeometry x="1730" y="180" width="112.5" height="95" as="geometry" />
        </mxCell>
        <mxCell id="t-iEIm-53DTjFRoMse5Y-115" value="" style="strokeWidth=2;html=1;shape=mxgraph.flowchart.database;whiteSpace=wrap;fillColor=#f8cecc;strokeColor=#b85450;" vertex="1" parent="t-iEIm-53DTjFRoMse5Y-135">
          <mxGeometry width="60" height="80" as="geometry" />
        </mxCell>
        <mxCell id="t-iEIm-53DTjFRoMse5Y-116" value="" style="strokeWidth=2;html=1;shape=mxgraph.flowchart.database;whiteSpace=wrap;fillColor=#d5e8d4;strokeColor=#82b366;" vertex="1" parent="t-iEIm-53DTjFRoMse5Y-135">
          <mxGeometry x="52.5" width="60" height="80" as="geometry" />
        </mxCell>
        <mxCell id="t-iEIm-53DTjFRoMse5Y-117" value="" style="strokeWidth=2;html=1;shape=mxgraph.flowchart.database;whiteSpace=wrap;fillColor=#e1d5e7;strokeColor=#9673a6;" vertex="1" parent="t-iEIm-53DTjFRoMse5Y-135">
          <mxGeometry x="22.5" y="15" width="60" height="80" as="geometry" />
        </mxCell>
        <mxCell id="t-iEIm-53DTjFRoMse5Y-136" style="edgeStyle=orthogonalEdgeStyle;rounded=0;orthogonalLoop=1;jettySize=auto;html=1;exitX=0.5;exitY=1;exitDx=0;exitDy=0;exitPerimeter=0;entryX=0.5;entryY=0;entryDx=0;entryDy=0;curved=1;" edge="1" parent="1" source="t-iEIm-53DTjFRoMse5Y-117" target="t-iEIm-53DTjFRoMse5Y-90">
          <mxGeometry relative="1" as="geometry" />
        </mxCell>
        <mxCell id="t-iEIm-53DTjFRoMse5Y-137" style="edgeStyle=orthogonalEdgeStyle;rounded=0;orthogonalLoop=1;jettySize=auto;html=1;exitX=0.5;exitY=1;exitDx=0;exitDy=0;exitPerimeter=0;entryX=0.5;entryY=0;entryDx=0;entryDy=0;curved=1;" edge="1" parent="1" source="t-iEIm-53DTjFRoMse5Y-117" target="t-iEIm-53DTjFRoMse5Y-126">
          <mxGeometry relative="1" as="geometry" />
        </mxCell>
        <mxCell id="t-iEIm-53DTjFRoMse5Y-138" style="edgeStyle=orthogonalEdgeStyle;rounded=0;orthogonalLoop=1;jettySize=auto;html=1;exitX=0.5;exitY=1;exitDx=0;exitDy=0;exitPerimeter=0;entryX=0.5;entryY=0;entryDx=0;entryDy=0;curved=1;" edge="1" parent="1" source="t-iEIm-53DTjFRoMse5Y-117" target="t-iEIm-53DTjFRoMse5Y-125">
          <mxGeometry relative="1" as="geometry" />
        </mxCell>
        <mxCell id="t-iEIm-53DTjFRoMse5Y-139" style="edgeStyle=orthogonalEdgeStyle;rounded=0;orthogonalLoop=1;jettySize=auto;html=1;exitX=0.5;exitY=1;exitDx=0;exitDy=0;exitPerimeter=0;entryX=0.5;entryY=0;entryDx=0;entryDy=0;curved=1;" edge="1" parent="1" source="t-iEIm-53DTjFRoMse5Y-117" target="t-iEIm-53DTjFRoMse5Y-127">
          <mxGeometry relative="1" as="geometry" />
        </mxCell>
        <mxCell id="t-iEIm-53DTjFRoMse5Y-124" value="" style="strokeWidth=2;html=1;shape=mxgraph.flowchart.database;whiteSpace=wrap;fillColor=#f8cecc;strokeColor=#b85450;" vertex="1" parent="1">
          <mxGeometry x="1655" y="640" width="60" height="20" as="geometry" />
        </mxCell>
      </root>
    </mxGraphModel>
  </diagram>
</mxfile>
